<?xml version="1.0" encoding="UTF-8" standalone="no"?>
<!DOCTYPE svg PUBLIC "-//W3C//DTD SVG 1.1//EN"
 "http://www.w3.org/Graphics/SVG/1.1/DTD/svg11.dtd">
<!-- Generated by graphviz version 7.0.0 (0)
 -->
<!-- Pages: 1 -->
<svg width="13646pt" height="99pt"
 viewBox="0.00 0.00 13646.00 99.00" xmlns="http://www.w3.org/2000/svg" xmlns:xlink="http://www.w3.org/1999/xlink">
<g id="graph0" class="graph" transform="scale(1 1) rotate(0) translate(4 95)">
<polygon fill="white" stroke="none" points="-4,4 -4,-95 13642,-95 13642,4 -4,4"/>
<g id="clust1" class="cluster">
<title>cluster_alfa</title>
<polygon fill="none" stroke="#81b3d6" points="8,-8 8,-83 1634,-83 1634,-8 8,-8"/>
<text text-anchor="middle" x="821" y="-67.8" font-family="Times,serif" font-size="14.00">alfa</text>
</g>
<g id="clust2" class="cluster">
<title>cluster_bravo</title>
<polygon fill="none" stroke="#628f40" points="1642,-8 1642,-83 3319,-83 3319,-8 1642,-8"/>
<text text-anchor="middle" x="2480.5" y="-67.8" font-family="Times,serif" font-size="14.00">bravo</text>
</g>
<g id="clust3" class="cluster">
<title>cluster_charlie</title>
<polygon fill="none" stroke="#f8a6c7" points="3327,-8 3327,-83 5770,-83 5770,-8 3327,-8"/>
<text text-anchor="middle" x="4548.5" y="-67.8" font-family="Times,serif" font-size="14.00">charlie</text>
</g>
<g id="clust4" class="cluster">
<title>cluster_delta</title>
<polygon fill="none" stroke="#09f303" points="5778,-8 5778,-83 7507,-83 7507,-8 5778,-8"/>
<text text-anchor="middle" x="6642.5" y="-67.8" font-family="Times,serif" font-size="14.00">delta</text>
</g>
<g id="clust5" class="cluster">
<title>cluster_echo</title>
<polygon fill="none" stroke="#39ac64" points="7515,-8 7515,-83 7994,-83 7994,-8 7515,-8"/>
<text text-anchor="middle" x="7754.5" y="-67.8" font-family="Times,serif" font-size="14.00">echo</text>
</g>
<g id="clust6" class="cluster">
<title>cluster_foxtrot</title>
<polygon fill="none" stroke="#1f3c3a" points="8002,-8 8002,-83 9086,-83 9086,-8 8002,-8"/>
<text text-anchor="middle" x="8544" y="-67.8" font-family="Times,serif" font-size="14.00">foxtrot</text>
</g>
<g id="clust7" class="cluster">
<title>cluster_golf</title>
<polygon fill="none" stroke="#0af375" points="9094,-8 9094,-83 9601,-83 9601,-8 9094,-8"/>
<text text-anchor="middle" x="9347.5" y="-67.8" font-family="Times,serif" font-size="14.00">golf</text>
</g>
<g id="clust8" class="cluster">
<title>cluster_hotel</title>
<polygon fill="none" stroke="#cb4fbe" points="9609,-8 9609,-83 9831,-83 9831,-8 9609,-8"/>
<text text-anchor="middle" x="9720" y="-67.8" font-family="Times,serif" font-size="14.00">hotel</text>
</g>
<g id="clust9" class="cluster">
<title>cluster_india</title>
<polygon fill="none" stroke="#61dcc2" points="9839,-8 9839,-83 10581,-83 10581,-8 9839,-8"/>
<text text-anchor="middle" x="10210" y="-67.8" font-family="Times,serif" font-size="14.00">india</text>
</g>
<g id="clust10" class="cluster">
<title>cluster_juliett</title>
<polygon fill="none" stroke="#f01789" points="10589,-8 10589,-83 10875,-83 10875,-8 10589,-8"/>
<text text-anchor="middle" x="10732" y="-67.8" font-family="Times,serif" font-size="14.00">juliett</text>
</g>
<g id="clust11" class="cluster">
<title>cluster_kilo</title>
<polygon fill="none" stroke="#eaf0ff" points="10883,-8 10883,-83 11936,-83 11936,-8 10883,-8"/>
<text text-anchor="middle" x="11409.5" y="-67.8" font-family="Times,serif" font-size="14.00">kilo</text>
</g>
<g id="clust12" class="cluster">
<title>cluster_lima</title>
<polygon fill="none" stroke="#953414" points="11944,-8 11944,-83 12565,-83 12565,-8 11944,-8"/>
<text text-anchor="middle" x="12254.5" y="-67.8" font-family="Times,serif" font-size="14.00">lima</text>
</g>
<g id="clust13" class="cluster">
<title>cluster_mike</title>
<polygon fill="none" stroke="#d9754d" points="12573,-8 12573,-83 12687,-83 12687,-8 12573,-8"/>
<text text-anchor="middle" x="12630" y="-67.8" font-family="Times,serif" font-size="14.00">mike</text>
</g>
<g id="clust14" class="cluster">
<title>cluster_november</title>
<polygon fill="none" stroke="#8dab6c" points="12695,-8 12695,-83 12847,-83 12847,-8 12695,-8"/>
<text text-anchor="middle" x="12771" y="-67.8" font-family="Times,serif" font-size="14.00">november</text>
</g>
<g id="clust15" class="cluster">
<title>cluster_oscar</title>
<polygon fill="none" stroke="#bf868d" points="12855,-8 12855,-83 12943,-83 12943,-8 12855,-8"/>
<text text-anchor="middle" x="12899" y="-67.8" font-family="Times,serif" font-size="14.00">oscar</text>
</g>
<g id="clust16" class="cluster">
<title>cluster_papa</title>
<polygon fill="none" stroke="#a4eedc" points="12951,-8 12951,-83 13508,-83 13508,-8 12951,-8"/>
<text text-anchor="middle" x="13229.5" y="-67.8" font-family="Times,serif" font-size="14.00">papa</text>
</g>
<g id="clust17" class="cluster">
<title>cluster_quebec</title>
<polygon fill="none" stroke="#e79e66" points="13516,-8 13516,-83 13630,-83 13630,-8 13516,-8"/>
<text text-anchor="middle" x="13573" y="-67.8" font-family="Times,serif" font-size="14.00">quebec</text>
</g>
<!-- alfa/toml -->
<g id="node1" class="node">
<title>alfa/toml</title>
<polygon fill="none" stroke="#81b3d6" points="1626,-52 1572,-52 1572,-16 1626,-16 1626,-52"/>
<text text-anchor="middle" x="1599" y="-30.3" font-family="Input Sans" font-size="14.00">toml</text>
</g>
<!-- alfa/etikett_rule -->
<g id="node2" class="node">
<title>alfa/etikett_rule</title>
<polygon fill="none" stroke="#81b3d6" points="1553.5,-52 1440.5,-52 1440.5,-16 1553.5,-16 1553.5,-52"/>
<text text-anchor="middle" x="1497" y="-30.3" font-family="Input Sans" font-size="14.00">etikett_rule</text>
</g>
<!-- alfa/coordinates -->
<g id="node3" class="node">
<title>alfa/coordinates</title>
<polygon fill="none" stroke="#81b3d6" points="1422,-52 1312,-52 1312,-16 1422,-16 1422,-52"/>
<text text-anchor="middle" x="1367" y="-30.3" font-family="Input Sans" font-size="14.00">coordinates</text>
</g>
<!-- alfa/schnittstellen -->
<g id="node4" class="node">
<title>alfa/schnittstellen</title>
<polygon fill="none" stroke="#81b3d6" points="1293.5,-52 1164.5,-52 1164.5,-16 1293.5,-16 1293.5,-52"/>
<text text-anchor="middle" x="1229" y="-30.3" font-family="Input Sans" font-size="14.00">schnittstellen</text>
</g>
<!-- alfa/reset -->
<g id="node5" class="node">
<title>alfa/reset</title>
<polygon fill="none" stroke="#81b3d6" points="1146.5,-52 1087.5,-52 1087.5,-16 1146.5,-16 1146.5,-52"/>
<text text-anchor="middle" x="1117" y="-30.3" font-family="Input Sans" font-size="14.00">reset</text>
</g>
<!-- alfa/angeboren -->
<g id="node6" class="node">
<title>alfa/angeboren</title>
<polygon fill="none" stroke="#81b3d6" points="1069.5,-52 970.5,-52 970.5,-16 1069.5,-16 1069.5,-52"/>
<text text-anchor="middle" x="1020" y="-30.3" font-family="Input Sans" font-size="14.00">angeboren</text>
</g>
<!-- alfa/erworben_cli_print_options -->
<g id="node7" class="node">
<title>alfa/erworben_cli_print_options</title>
<polygon fill="none" stroke="#81b3d6" points="952,-52 712,-52 712,-16 952,-16 952,-52"/>
<text text-anchor="middle" x="832" y="-30.3" font-family="Input Sans" font-size="14.00">erworben_cli_print_options</text>
</g>
<!-- alfa/gattung_format_value -->
<g id="node8" class="node">
<title>alfa/gattung_format_value</title>
<polygon fill="none" stroke="#81b3d6" points="693.5,-52 496.5,-52 496.5,-16 693.5,-16 693.5,-52"/>
<text text-anchor="middle" x="595" y="-30.3" font-family="Input Sans" font-size="14.00">gattung_format_value</text>
</g>
<!-- alfa/exec -->
<g id="node9" class="node">
<title>alfa/exec</title>
<polygon fill="none" stroke="#81b3d6" points="478,-52 424,-52 424,-16 478,-16 478,-52"/>
<text text-anchor="middle" x="451" y="-30.3" font-family="Input Sans" font-size="14.00">exec</text>
</g>
<!-- alfa/errors -->
<g id="node10" class="node">
<title>alfa/errors</title>
<polygon fill="none" stroke="#81b3d6" points="406,-52 340,-52 340,-16 406,-16 406,-52"/>
<text text-anchor="middle" x="373" y="-30.3" font-family="Input Sans" font-size="14.00">errors</text>
</g>
<!-- alfa/vim_cli_options_builder -->
<g id="node11" class="node">
<title>alfa/vim_cli_options_builder</title>
<polygon fill="none" stroke="#81b3d6" points="322,-52 110,-52 110,-16 322,-16 322,-52"/>
<text text-anchor="middle" x="216" y="-30.3" font-family="Input Sans" font-size="14.00">vim_cli_options_builder</text>
</g>
<!-- alfa/unicorn -->
<g id="node12" class="node">
<title>alfa/unicorn</title>
<polygon fill="none" stroke="#81b3d6" points="91.5,-52 16.5,-52 16.5,-16 91.5,-16 91.5,-52"/>
<text text-anchor="middle" x="54" y="-30.3" font-family="Input Sans" font-size="14.00">unicorn</text>
</g>
<!-- bravo/string_builder_joined -->
<g id="node13" class="node">
<title>bravo/string_builder_joined</title>
<polygon fill="none" stroke="#628f40" points="3310.5,-52 3119.5,-52 3119.5,-16 3310.5,-16 3310.5,-52"/>
<text text-anchor="middle" x="3215" y="-30.3" font-family="Input Sans" font-size="14.00">string_builder_joined</text>
</g>
<!-- bravo/test_logz -->
<g id="node14" class="node">
<title>bravo/test_logz</title>
<polygon fill="none" stroke="#628f40" points="3101.5,-52 3006.5,-52 3006.5,-16 3101.5,-16 3101.5,-52"/>
<text text-anchor="middle" x="3054" y="-30.3" font-family="Input Sans" font-size="14.00">test_logz</text>
</g>
<!-- bravo/iter -->
<g id="node15" class="node">
<title>bravo/iter</title>
<polygon fill="none" stroke="#628f40" points="2988,-52 2934,-52 2934,-16 2988,-16 2988,-52"/>
<text text-anchor="middle" x="2961" y="-30.3" font-family="Input Sans" font-size="14.00">iter</text>
</g>
<!-- bravo/values -->
<g id="node16" class="node">
<title>bravo/values</title>
<polygon fill="none" stroke="#628f40" points="2915.5,-52 2848.5,-52 2848.5,-16 2915.5,-16 2915.5,-52"/>
<text text-anchor="middle" x="2882" y="-30.3" font-family="Input Sans" font-size="14.00">values</text>
</g>
<!-- bravo/todo -->
<g id="node17" class="node">
<title>bravo/todo</title>
<polygon fill="none" stroke="#628f40" points="2830,-52 2776,-52 2776,-16 2830,-16 2830,-52"/>
<text text-anchor="middle" x="2803" y="-30.3" font-family="Input Sans" font-size="14.00">todo</text>
</g>
<!-- bravo/equals -->
<g id="node18" class="node">
<title>bravo/equals</title>
<polygon fill="none" stroke="#628f40" points="2758,-52 2690,-52 2690,-16 2758,-16 2758,-52"/>
<text text-anchor="middle" x="2724" y="-30.3" font-family="Input Sans" font-size="14.00">equals</text>
</g>
<!-- bravo/checkout_mode -->
<g id="node19" class="node">
<title>bravo/checkout_mode</title>
<polygon fill="none" stroke="#628f40" points="2671.5,-52 2534.5,-52 2534.5,-16 2671.5,-16 2671.5,-52"/>
<text text-anchor="middle" x="2603" y="-30.3" font-family="Input Sans" font-size="14.00">checkout_mode</text>
</g>
<!-- bravo/expansion -->
<g id="node20" class="node">
<title>bravo/expansion</title>
<polygon fill="none" stroke="#628f40" points="2516.5,-52 2421.5,-52 2421.5,-16 2516.5,-16 2516.5,-52"/>
<text text-anchor="middle" x="2469" y="-30.3" font-family="Input Sans" font-size="14.00">expansion</text>
</g>
<!-- bravo/equality -->
<g id="node21" class="node">
<title>bravo/equality</title>
<polygon fill="none" stroke="#628f40" points="2403,-52 2323,-52 2323,-16 2403,-16 2403,-52"/>
<text text-anchor="middle" x="2363" y="-30.3" font-family="Input Sans" font-size="14.00">equality</text>
</g>
<!-- bravo/objekte_mode -->
<g id="node22" class="node">
<title>bravo/objekte_mode</title>
<polygon fill="none" stroke="#628f40" points="2304.5,-52 2179.5,-52 2179.5,-16 2304.5,-16 2304.5,-52"/>
<text text-anchor="middle" x="2242" y="-30.3" font-family="Input Sans" font-size="14.00">objekte_mode</text>
</g>
<!-- bravo/erworben_tools -->
<g id="node23" class="node">
<title>bravo/erworben_tools</title>
<polygon fill="none" stroke="#628f40" points="2161.5,-52 2022.5,-52 2022.5,-16 2161.5,-16 2161.5,-52"/>
<text text-anchor="middle" x="2092" y="-30.3" font-family="Input Sans" font-size="14.00">erworben_tools</text>
</g>
<!-- bravo/files -->
<g id="node24" class="node">
<title>bravo/files</title>
<polygon fill="none" stroke="#628f40" points="2004,-52 1950,-52 1950,-16 2004,-16 2004,-52"/>
<text text-anchor="middle" x="1977" y="-30.3" font-family="Input Sans" font-size="14.00">files</text>
</g>
<!-- bravo/log -->
<g id="node25" class="node">
<title>bravo/log</title>
<polygon fill="none" stroke="#628f40" points="1932,-52 1878,-52 1878,-16 1932,-16 1932,-52"/>
<text text-anchor="middle" x="1905" y="-30.3" font-family="Input Sans" font-size="14.00">log</text>
</g>
<!-- bravo/id -->
<g id="node26" class="node">
<title>bravo/id</title>
<polygon fill="none" stroke="#628f40" points="1860,-52 1806,-52 1806,-16 1860,-16 1860,-52"/>
<text text-anchor="middle" x="1833" y="-30.3" font-family="Input Sans" font-size="14.00">id</text>
</g>
<!-- bravo/alfred -->
<g id="node27" class="node">
<title>bravo/alfred</title>
<polygon fill="none" stroke="#628f40" points="1787.5,-52 1722.5,-52 1722.5,-16 1787.5,-16 1787.5,-52"/>
<text text-anchor="middle" x="1755" y="-30.3" font-family="Input Sans" font-size="14.00">alfred</text>
</g>
<!-- bravo/pool -->
<g id="node28" class="node">
<title>bravo/pool</title>
<polygon fill="none" stroke="#628f40" points="1704,-52 1650,-52 1650,-16 1704,-16 1704,-52"/>
<text text-anchor="middle" x="1677" y="-30.3" font-family="Input Sans" font-size="14.00">pool</text>
</g>
<!-- charlie/checkout_options -->
<g id="node29" class="node">
<title>charlie/checkout_options</title>
<polygon fill="none" stroke="#f8a6c7" points="5761.5,-52 5606.5,-52 5606.5,-16 5761.5,-16 5761.5,-52"/>
<text text-anchor="middle" x="5684" y="-30.3" font-family="Input Sans" font-size="14.00">checkout_options</text>
</g>
<!-- charlie/ohio_buffer -->
<g id="node30" class="node">
<title>charlie/ohio_buffer</title>
<polygon fill="none" stroke="#f8a6c7" points="5588,-52 5478,-52 5478,-16 5588,-16 5588,-52"/>
<text text-anchor="middle" x="5533" y="-30.3" font-family="Input Sans" font-size="14.00">ohio_buffer</text>
</g>
<!-- charlie/collections_value -->
<g id="node31" class="node">
<title>charlie/collections_value</title>
<polygon fill="none" stroke="#f8a6c7" points="5459.5,-52 5302.5,-52 5302.5,-16 5459.5,-16 5459.5,-52"/>
<text text-anchor="middle" x="5381" y="-30.3" font-family="Input Sans" font-size="14.00">collections_value</text>
</g>
<!-- charlie/iter2 -->
<g id="node32" class="node">
<title>charlie/iter2</title>
<polygon fill="none" stroke="#f8a6c7" points="5284.5,-52 5227.5,-52 5227.5,-16 5284.5,-16 5284.5,-52"/>
<text text-anchor="middle" x="5256" y="-30.3" font-family="Input Sans" font-size="14.00">iter2</text>
</g>
<!-- charlie/collections_slice_set -->
<g id="node33" class="node">
<title>charlie/collections_slice_set</title>
<polygon fill="none" stroke="#f8a6c7" points="5209,-52 5017,-52 5017,-16 5209,-16 5209,-52"/>
<text text-anchor="middle" x="5113" y="-30.3" font-family="Input Sans" font-size="14.00">collections_slice_set</text>
</g>
<!-- charlie/tridex -->
<g id="node34" class="node">
<title>charlie/tridex</title>
<polygon fill="none" stroke="#f8a6c7" points="4998.5,-52 4935.5,-52 4935.5,-16 4998.5,-16 4998.5,-52"/>
<text text-anchor="middle" x="4967" y="-30.3" font-family="Input Sans" font-size="14.00">tridex</text>
</g>
<!-- charlie/string_format_writer -->
<g id="node35" class="node">
<title>charlie/string_format_writer</title>
<polygon fill="none" stroke="#f8a6c7" points="4917.5,-52 4726.5,-52 4726.5,-16 4917.5,-16 4917.5,-52"/>
<text text-anchor="middle" x="4822" y="-30.3" font-family="Input Sans" font-size="14.00">string_format_writer</text>
</g>
<!-- charlie/exec_editor -->
<g id="node36" class="node">
<title>charlie/exec_editor</title>
<polygon fill="none" stroke="#f8a6c7" points="4708,-52 4598,-52 4598,-16 4708,-16 4708,-52"/>
<text text-anchor="middle" x="4653" y="-30.3" font-family="Input Sans" font-size="14.00">exec_editor</text>
</g>
<!-- charlie/script_config -->
<g id="node37" class="node">
<title>charlie/script_config</title>
<polygon fill="none" stroke="#f8a6c7" points="4579.5,-52 4452.5,-52 4452.5,-16 4579.5,-16 4579.5,-52"/>
<text text-anchor="middle" x="4516" y="-30.3" font-family="Input Sans" font-size="14.00">script_config</text>
</g>
<!-- charlie/catgut -->
<g id="node38" class="node">
<title>charlie/catgut</title>
<polygon fill="none" stroke="#f8a6c7" points="4434,-52 4364,-52 4364,-16 4434,-16 4434,-52"/>
<text text-anchor="middle" x="4399" y="-30.3" font-family="Input Sans" font-size="14.00">catgut</text>
</g>
<!-- charlie/hinweisen -->
<g id="node39" class="node">
<title>charlie/hinweisen</title>
<polygon fill="none" stroke="#f8a6c7" points="4346,-52 4252,-52 4252,-16 4346,-16 4346,-52"/>
<text text-anchor="middle" x="4299" y="-30.3" font-family="Input Sans" font-size="14.00">hinweisen</text>
</g>
<!-- charlie/trie -->
<g id="node40" class="node">
<title>charlie/trie</title>
<polygon fill="none" stroke="#f8a6c7" points="4234,-52 4180,-52 4180,-16 4234,-16 4234,-52"/>
<text text-anchor="middle" x="4207" y="-30.3" font-family="Input Sans" font-size="14.00">trie</text>
</g>
<!-- charlie/age -->
<g id="node41" class="node">
<title>charlie/age</title>
<polygon fill="none" stroke="#f8a6c7" points="4162,-52 4108,-52 4108,-16 4162,-16 4162,-52"/>
<text text-anchor="middle" x="4135" y="-30.3" font-family="Input Sans" font-size="14.00">age</text>
</g>
<!-- charlie/sha -->
<g id="node42" class="node">
<title>charlie/sha</title>
<polygon fill="none" stroke="#f8a6c7" points="4090,-52 4036,-52 4036,-16 4090,-16 4090,-52"/>
<text text-anchor="middle" x="4063" y="-30.3" font-family="Input Sans" font-size="14.00">sha</text>
</g>
<!-- charlie/gattung -->
<g id="node43" class="node">
<title>charlie/gattung</title>
<polygon fill="none" stroke="#f8a6c7" points="4018,-52 3938,-52 3938,-16 4018,-16 4018,-52"/>
<text text-anchor="middle" x="3978" y="-30.3" font-family="Input Sans" font-size="14.00">gattung</text>
</g>
<!-- charlie/file_lock -->
<g id="node44" class="node">
<title>charlie/file_lock</title>
<polygon fill="none" stroke="#f8a6c7" points="3919.5,-52 3832.5,-52 3832.5,-16 3919.5,-16 3919.5,-52"/>
<text text-anchor="middle" x="3876" y="-30.3" font-family="Input Sans" font-size="14.00">file_lock</text>
</g>
<!-- charlie/collections -->
<g id="node45" class="node">
<title>charlie/collections</title>
<polygon fill="none" stroke="#f8a6c7" points="3814.5,-52 3709.5,-52 3709.5,-16 3814.5,-16 3814.5,-52"/>
<text text-anchor="middle" x="3762" y="-30.3" font-family="Input Sans" font-size="14.00">collections</text>
</g>
<!-- charlie/collections_ptr -->
<g id="node46" class="node">
<title>charlie/collections_ptr</title>
<polygon fill="none" stroke="#f8a6c7" points="3691,-52 3551,-52 3551,-16 3691,-16 3691,-52"/>
<text text-anchor="middle" x="3621" y="-30.3" font-family="Input Sans" font-size="14.00">collections_ptr</text>
</g>
<!-- charlie/script_value -->
<g id="node47" class="node">
<title>charlie/script_value</title>
<polygon fill="none" stroke="#f8a6c7" points="3533,-52 3417,-52 3417,-16 3533,-16 3533,-52"/>
<text text-anchor="middle" x="3475" y="-30.3" font-family="Input Sans" font-size="14.00">script_value</text>
</g>
<!-- charlie/debug -->
<g id="node48" class="node">
<title>charlie/debug</title>
<polygon fill="none" stroke="#f8a6c7" points="3398.5,-52 3335.5,-52 3335.5,-16 3398.5,-16 3398.5,-52"/>
<text text-anchor="middle" x="3367" y="-30.3" font-family="Input Sans" font-size="14.00">debug</text>
</g>
<!-- delta/standort -->
<g id="node49" class="node">
<title>delta/standort</title>
<polygon fill="none" stroke="#09f303" points="7499,-52 7413,-52 7413,-16 7499,-16 7499,-52"/>
<text text-anchor="middle" x="7456" y="-30.3" font-family="Input Sans" font-size="14.00">standort</text>
</g>
<!-- delta/checked_out_state -->
<g id="node50" class="node">
<title>delta/checked_out_state</title>
<polygon fill="none" stroke="#09f303" points="7394.5,-52 7225.5,-52 7225.5,-16 7394.5,-16 7394.5,-52"/>
<text text-anchor="middle" x="7310" y="-30.3" font-family="Input Sans" font-size="14.00">checked_out_state</text>
</g>
<!-- delta/ohio -->
<g id="node51" class="node">
<title>delta/ohio</title>
<polygon fill="none" stroke="#09f303" points="7207,-52 7153,-52 7153,-16 7207,-16 7207,-52"/>
<text text-anchor="middle" x="7180" y="-30.3" font-family="Input Sans" font-size="14.00">ohio</text>
</g>
<!-- delta/collections_delta -->
<g id="node52" class="node">
<title>delta/collections_delta</title>
<polygon fill="none" stroke="#09f303" points="7135,-52 6977,-52 6977,-16 7135,-16 7135,-52"/>
<text text-anchor="middle" x="7056" y="-30.3" font-family="Input Sans" font-size="14.00">collections_delta</text>
</g>
<!-- delta/gattungen -->
<g id="node53" class="node">
<title>delta/gattungen</title>
<polygon fill="none" stroke="#09f303" points="6959,-52 6861,-52 6861,-16 6959,-16 6959,-52"/>
<text text-anchor="middle" x="6910" y="-30.3" font-family="Input Sans" font-size="14.00">gattungen</text>
</g>
<!-- delta/heap -->
<g id="node54" class="node">
<title>delta/heap</title>
<polygon fill="none" stroke="#09f303" points="6843,-52 6789,-52 6789,-16 6843,-16 6843,-52"/>
<text text-anchor="middle" x="6816" y="-30.3" font-family="Input Sans" font-size="14.00">heap</text>
</g>
<!-- delta/typ_akte -->
<g id="node55" class="node">
<title>delta/typ_akte</title>
<polygon fill="none" stroke="#09f303" points="6771,-52 6685,-52 6685,-16 6771,-16 6771,-52"/>
<text text-anchor="middle" x="6728" y="-30.3" font-family="Input Sans" font-size="14.00">typ_akte</text>
</g>
<!-- delta/sha_collections -->
<g id="node56" class="node">
<title>delta/sha_collections</title>
<polygon fill="none" stroke="#09f303" points="6666.5,-52 6521.5,-52 6521.5,-16 6666.5,-16 6666.5,-52"/>
<text text-anchor="middle" x="6594" y="-30.3" font-family="Input Sans" font-size="14.00">sha_collections</text>
</g>
<!-- delta/thyme -->
<g id="node57" class="node">
<title>delta/thyme</title>
<polygon fill="none" stroke="#09f303" points="6503,-52 6441,-52 6441,-16 6503,-16 6503,-52"/>
<text text-anchor="middle" x="6472" y="-30.3" font-family="Input Sans" font-size="14.00">thyme</text>
</g>
<!-- delta/kasten_akte -->
<g id="node58" class="node">
<title>delta/kasten_akte</title>
<polygon fill="none" stroke="#09f303" points="6422.5,-52 6307.5,-52 6307.5,-16 6422.5,-16 6422.5,-52"/>
<text text-anchor="middle" x="6365" y="-30.3" font-family="Input Sans" font-size="14.00">kasten_akte</text>
</g>
<!-- delta/schlussel -->
<g id="node59" class="node">
<title>delta/schlussel</title>
<polygon fill="none" stroke="#09f303" points="6289,-52 6197,-52 6197,-16 6289,-16 6289,-52"/>
<text text-anchor="middle" x="6243" y="-30.3" font-family="Input Sans" font-size="14.00">schlussel</text>
</g>
<!-- delta/etikett_akte -->
<g id="node60" class="node">
<title>delta/etikett_akte</title>
<polygon fill="none" stroke="#09f303" points="6179,-52 6063,-52 6063,-16 6179,-16 6179,-52"/>
<text text-anchor="middle" x="6121" y="-30.3" font-family="Input Sans" font-size="14.00">etikett_akte</text>
</g>
<!-- delta/zittish -->
<g id="node61" class="node">
<title>delta/zittish</title>
<polygon fill="none" stroke="#09f303" points="6044.5,-52 5973.5,-52 5973.5,-16 6044.5,-16 6044.5,-52"/>
<text text-anchor="middle" x="6009" y="-30.3" font-family="Input Sans" font-size="14.00">zittish</text>
</g>
<!-- delta/collections_coding -->
<g id="node62" class="node">
<title>delta/collections_coding</title>
<polygon fill="none" stroke="#09f303" points="5955.5,-52 5786.5,-52 5786.5,-16 5955.5,-16 5955.5,-52"/>
<text text-anchor="middle" x="5871" y="-30.3" font-family="Input Sans" font-size="14.00">collections_coding</text>
</g>
<!-- echo/bezeichnung -->
<g id="node63" class="node">
<title>echo/bezeichnung</title>
<polygon fill="none" stroke="#39ac64" points="7986,-52 7872,-52 7872,-16 7986,-16 7986,-52"/>
<text text-anchor="middle" x="7929" y="-30.3" font-family="Input Sans" font-size="14.00">bezeichnung</text>
</g>
<!-- echo/fd -->
<g id="node64" class="node">
<title>echo/fd</title>
<polygon fill="none" stroke="#39ac64" points="7854,-52 7800,-52 7800,-16 7854,-16 7854,-52"/>
<text text-anchor="middle" x="7827" y="-30.3" font-family="Input Sans" font-size="14.00">fd</text>
</g>
<!-- echo/kennung -->
<g id="node65" class="node">
<title>echo/kennung</title>
<polygon fill="none" stroke="#39ac64" points="7782,-52 7702,-52 7702,-16 7782,-16 7782,-52"/>
<text text-anchor="middle" x="7742" y="-30.3" font-family="Input Sans" font-size="14.00">kennung</text>
</g>
<!-- echo/etikett -->
<g id="node66" class="node">
<title>echo/etikett</title>
<polygon fill="none" stroke="#39ac64" points="7683.5,-52 7612.5,-52 7612.5,-16 7683.5,-16 7683.5,-52"/>
<text text-anchor="middle" x="7648" y="-30.3" font-family="Input Sans" font-size="14.00">etikett</text>
</g>
<!-- echo/format -->
<g id="node67" class="node">
<title>echo/format</title>
<polygon fill="none" stroke="#39ac64" points="7594.5,-52 7523.5,-52 7523.5,-16 7594.5,-16 7594.5,-52"/>
<text text-anchor="middle" x="7559" y="-30.3" font-family="Input Sans" font-size="14.00">format</text>
</g>
<!-- foxtrot/metadatei -->
<g id="node68" class="node">
<title>foxtrot/metadatei</title>
<polygon fill="none" stroke="#1f3c3a" points="9078,-52 8980,-52 8980,-16 9078,-16 9078,-52"/>
<text text-anchor="middle" x="9029" y="-30.3" font-family="Input Sans" font-size="14.00">metadatei</text>
</g>
<!-- foxtrot/hinweis_index -->
<g id="node69" class="node">
<title>foxtrot/hinweis_index</title>
<polygon fill="none" stroke="#1f3c3a" points="8962,-52 8834,-52 8834,-16 8962,-16 8962,-52"/>
<text text-anchor="middle" x="8898" y="-30.3" font-family="Input Sans" font-size="14.00">hinweis_index</text>
</g>
<!-- foxtrot/hinweis_index/v1 -->
<g id="node70" class="node">
<title>foxtrot/hinweis_index/v1</title>
<polygon fill="none" stroke="#1f3c3a" points="8815.5,-52 8660.5,-52 8660.5,-16 8815.5,-16 8815.5,-52"/>
<text text-anchor="middle" x="8738" y="-30.3" font-family="Input Sans" font-size="14.00">hinweis_index/v1</text>
</g>
<!-- foxtrot/hinweis_index/v0 -->
<g id="node71" class="node">
<title>foxtrot/hinweis_index/v0</title>
<polygon fill="none" stroke="#1f3c3a" points="8642.5,-52 8487.5,-52 8487.5,-16 8642.5,-16 8642.5,-52"/>
<text text-anchor="middle" x="8565" y="-30.3" font-family="Input Sans" font-size="14.00">hinweis_index/v0</text>
</g>
<!-- foxtrot/test_metadatei_io -->
<g id="node72" class="node">
<title>foxtrot/test_metadatei_io</title>
<polygon fill="none" stroke="#1f3c3a" points="8469,-52 8301,-52 8301,-16 8469,-16 8469,-52"/>
<text text-anchor="middle" x="8385" y="-30.3" font-family="Input Sans" font-size="14.00">test_metadatei_io</text>
</g>
<!-- foxtrot/kennung_fmt -->
<g id="node73" class="node">
<title>foxtrot/kennung_fmt</title>
<polygon fill="none" stroke="#1f3c3a" points="8282.5,-52 8163.5,-52 8163.5,-16 8282.5,-16 8282.5,-52"/>
<text text-anchor="middle" x="8223" y="-30.3" font-family="Input Sans" font-size="14.00">kennung_fmt</text>
</g>
<!-- foxtrot/etiketten_path -->
<g id="node74" class="node">
<title>foxtrot/etiketten_path</title>
<polygon fill="none" stroke="#1f3c3a" points="8145.5,-52 8010.5,-52 8010.5,-16 8145.5,-16 8145.5,-52"/>
<text text-anchor="middle" x="8078" y="-30.3" font-family="Input Sans" font-size="14.00">etiketten_path</text>
</g>
<!-- golf/kennung_index -->
<g id="node75" class="node">
<title>golf/kennung_index</title>
<polygon fill="none" stroke="#0af375" points="9592.5,-52 9461.5,-52 9461.5,-16 9592.5,-16 9592.5,-52"/>
<text text-anchor="middle" x="9527" y="-30.3" font-family="Input Sans" font-size="14.00">kennung_index</text>
</g>
<!-- golf/ennui -->
<g id="node76" class="node">
<title>golf/ennui</title>
<polygon fill="none" stroke="#0af375" points="9443.5,-52 9384.5,-52 9384.5,-16 9443.5,-16 9443.5,-52"/>
<text text-anchor="middle" x="9414" y="-30.3" font-family="Input Sans" font-size="14.00">ennui</text>
</g>
<!-- golf/objekte_format -->
<g id="node77" class="node">
<title>golf/objekte_format</title>
<polygon fill="none" stroke="#0af375" points="9366.5,-52 9227.5,-52 9227.5,-16 9366.5,-16 9366.5,-52"/>
<text text-anchor="middle" x="9297" y="-30.3" font-family="Input Sans" font-size="14.00">objekte_format</text>
</g>
<!-- golf/ennui_shas -->
<g id="node78" class="node">
<title>golf/ennui_shas</title>
<polygon fill="none" stroke="#0af375" points="9209.5,-52 9102.5,-52 9102.5,-16 9209.5,-16 9209.5,-52"/>
<text text-anchor="middle" x="9156" y="-30.3" font-family="Input Sans" font-size="14.00">ennui_shas</text>
</g>
<!-- hotel/sku -->
<g id="node79" class="node">
<title>hotel/sku</title>
<polygon fill="none" stroke="#cb4fbe" points="9823,-52 9769,-52 9769,-16 9823,-16 9823,-52"/>
<text text-anchor="middle" x="9796" y="-30.3" font-family="Input Sans" font-size="14.00">sku</text>
</g>
<!-- hotel/matcher_proto -->
<g id="node80" class="node">
<title>hotel/matcher_proto</title>
<polygon fill="none" stroke="#cb4fbe" points="9751,-52 9617,-52 9617,-16 9751,-16 9751,-52"/>
<text text-anchor="middle" x="9684" y="-30.3" font-family="Input Sans" font-size="14.00">matcher_proto</text>
</g>
<!-- india/objekte_collections -->
<g id="node81" class="node">
<title>india/objekte_collections</title>
<polygon fill="none" stroke="#61dcc2" points="10572.5,-52 10399.5,-52 10399.5,-16 10572.5,-16 10572.5,-52"/>
<text text-anchor="middle" x="10486" y="-30.3" font-family="Input Sans" font-size="14.00">objekte_collections</text>
</g>
<!-- india/erworben -->
<g id="node82" class="node">
<title>india/erworben</title>
<polygon fill="none" stroke="#61dcc2" points="10381,-52 10293,-52 10293,-16 10381,-16 10381,-52"/>
<text text-anchor="middle" x="10337" y="-30.3" font-family="Input Sans" font-size="14.00">erworben</text>
</g>
<!-- india/matcher -->
<g id="node83" class="node">
<title>india/matcher</title>
<polygon fill="none" stroke="#61dcc2" points="10274.5,-52 10193.5,-52 10193.5,-16 10274.5,-16 10274.5,-52"/>
<text text-anchor="middle" x="10234" y="-30.3" font-family="Input Sans" font-size="14.00">matcher</text>
</g>
<!-- india/sku_fmt -->
<g id="node84" class="node">
<title>india/sku_fmt</title>
<polygon fill="none" stroke="#61dcc2" points="10175.5,-52 10094.5,-52 10094.5,-16 10175.5,-16 10175.5,-52"/>
<text text-anchor="middle" x="10135" y="-30.3" font-family="Input Sans" font-size="14.00">sku_fmt</text>
</g>
<!-- india/kasten -->
<g id="node85" class="node">
<title>india/kasten</title>
<polygon fill="none" stroke="#61dcc2" points="10076.5,-52 10007.5,-52 10007.5,-16 10076.5,-16 10076.5,-52"/>
<text text-anchor="middle" x="10042" y="-30.3" font-family="Input Sans" font-size="14.00">kasten</text>
</g>
<!-- india/query -->
<g id="node86" class="node">
<title>india/query</title>
<polygon fill="none" stroke="#61dcc2" points="9989.5,-52 9930.5,-52 9930.5,-16 9989.5,-16 9989.5,-52"/>
<text text-anchor="middle" x="9960" y="-30.3" font-family="Input Sans" font-size="14.00">query</text>
</g>
<!-- india/alfred -->
<g id="node87" class="node">
<title>india/alfred</title>
<polygon fill="none" stroke="#61dcc2" points="9912.5,-52 9847.5,-52 9847.5,-16 9912.5,-16 9912.5,-52"/>
<text text-anchor="middle" x="9880" y="-30.3" font-family="Input Sans" font-size="14.00">alfred</text>
</g>
<!-- juliett/to_merge -->
<g id="node88" class="node">
<title>juliett/to_merge</title>
<polygon fill="none" stroke="#f01789" points="10866.5,-52 10773.5,-52 10773.5,-16 10866.5,-16 10866.5,-52"/>
<text text-anchor="middle" x="10820" y="-30.3" font-family="Input Sans" font-size="14.00">to_merge</text>
</g>
<!-- juliett/objekte -->
<g id="node89" class="node">
<title>juliett/objekte</title>
<polygon fill="none" stroke="#f01789" points="10755,-52 10681,-52 10681,-16 10755,-16 10755,-52"/>
<text text-anchor="middle" x="10718" y="-30.3" font-family="Input Sans" font-size="14.00">objekte</text>
</g>
<!-- juliett/konfig -->
<g id="node90" class="node">
<title>juliett/konfig</title>
<polygon fill="none" stroke="#f01789" points="10663,-52 10597,-52 10597,-16 10663,-16 10663,-52"/>
<text text-anchor="middle" x="10630" y="-30.3" font-family="Input Sans" font-size="14.00">konfig</text>
</g>
<!-- kilo/zettel -->
<g id="node91" class="node">
<title>kilo/zettel</title>
<polygon fill="none" stroke="#eaf0ff" points="11927.5,-52 11862.5,-52 11862.5,-16 11927.5,-16 11927.5,-52"/>
<text text-anchor="middle" x="11895" y="-30.3" font-family="Input Sans" font-size="14.00">zettel</text>
</g>
<!-- kilo/store_verzeichnisse -->
<g id="node92" class="node">
<title>kilo/store_verzeichnisse</title>
<polygon fill="none" stroke="#eaf0ff" points="11844.5,-52 11667.5,-52 11667.5,-16 11844.5,-16 11844.5,-52"/>
<text text-anchor="middle" x="11756" y="-30.3" font-family="Input Sans" font-size="14.00">store_verzeichnisse</text>
</g>
<!-- kilo/objekte_formatter -->
<g id="node93" class="node">
<title>kilo/objekte_formatter</title>
<polygon fill="none" stroke="#eaf0ff" points="11649.5,-52 11486.5,-52 11486.5,-16 11649.5,-16 11649.5,-52"/>
<text text-anchor="middle" x="11568" y="-30.3" font-family="Input Sans" font-size="14.00">objekte_formatter</text>
</g>
<!-- kilo/typ -->
<g id="node94" class="node">
<title>kilo/typ</title>
<polygon fill="none" stroke="#eaf0ff" points="11468,-52 11414,-52 11414,-16 11468,-16 11468,-52"/>
<text text-anchor="middle" x="11441" y="-30.3" font-family="Input Sans" font-size="14.00">typ</text>
</g>
<!-- kilo/objekte_store -->
<g id="node95" class="node">
<title>kilo/objekte_store</title>
<polygon fill="none" stroke="#eaf0ff" points="11395.5,-52 11268.5,-52 11268.5,-16 11395.5,-16 11395.5,-52"/>
<text text-anchor="middle" x="11332" y="-30.3" font-family="Input Sans" font-size="14.00">objekte_store</text>
</g>
<!-- kilo/organize_text -->
<g id="node96" class="node">
<title>kilo/organize_text</title>
<polygon fill="none" stroke="#eaf0ff" points="11250.5,-52 11121.5,-52 11121.5,-16 11250.5,-16 11250.5,-52"/>
<text text-anchor="middle" x="11186" y="-30.3" font-family="Input Sans" font-size="14.00">organize_text</text>
</g>
<!-- kilo/organize_text2 -->
<g id="node97" class="node">
<title>kilo/organize_text2</title>
<polygon fill="none" stroke="#eaf0ff" points="11103,-52 10963,-52 10963,-16 11103,-16 11103,-52"/>
<text text-anchor="middle" x="11033" y="-30.3" font-family="Input Sans" font-size="14.00">organize_text2</text>
</g>
<!-- kilo/cwd -->
<g id="node98" class="node">
<title>kilo/cwd</title>
<polygon fill="none" stroke="#eaf0ff" points="10945,-52 10891,-52 10891,-16 10945,-16 10945,-52"/>
<text text-anchor="middle" x="10918" y="-30.3" font-family="Input Sans" font-size="14.00">cwd</text>
</g>
<!-- lima/bestandsaufnahme -->
<g id="node99" class="node">
<title>lima/bestandsaufnahme</title>
<polygon fill="none" stroke="#953414" points="12557,-52 12391,-52 12391,-16 12557,-16 12557,-52"/>
<text text-anchor="middle" x="12474" y="-30.3" font-family="Input Sans" font-size="14.00">bestandsaufnahme</text>
</g>
<!-- lima/changes -->
<g id="node100" class="node">
<title>lima/changes</title>
<polygon fill="none" stroke="#953414" points="12372.5,-52 12289.5,-52 12289.5,-16 12372.5,-16 12372.5,-52"/>
<text text-anchor="middle" x="12331" y="-30.3" font-family="Input Sans" font-size="14.00">changes</text>
</g>
<!-- lima/organize_text -->
<g id="node101" class="node">
<title>lima/organize_text</title>
<polygon fill="none" stroke="#953414" points="12271.5,-52 12142.5,-52 12142.5,-16 12271.5,-16 12271.5,-52"/>
<text text-anchor="middle" x="12207" y="-30.3" font-family="Input Sans" font-size="14.00">organize_text</text>
</g>
<!-- lima/akten -->
<g id="node102" class="node">
<title>lima/akten</title>
<polygon fill="none" stroke="#953414" points="12124,-52 12064,-52 12064,-16 12124,-16 12124,-52"/>
<text text-anchor="middle" x="12094" y="-30.3" font-family="Input Sans" font-size="14.00">akten</text>
</g>
<!-- lima/changes2 -->
<g id="node103" class="node">
<title>lima/changes2</title>
<polygon fill="none" stroke="#953414" points="12045.5,-52 11952.5,-52 11952.5,-16 12045.5,-16 12045.5,-52"/>
<text text-anchor="middle" x="11999" y="-30.3" font-family="Input Sans" font-size="14.00">changes2</text>
</g>
<!-- mike/store_util -->
<g id="node104" class="node">
<title>mike/store_util</title>
<polygon fill="none" stroke="#d9754d" points="12679,-52 12581,-52 12581,-16 12679,-16 12679,-52"/>
<text text-anchor="middle" x="12630" y="-30.3" font-family="Input Sans" font-size="14.00">store_util</text>
</g>
<!-- november/store_objekten -->
<g id="node105" class="node">
<title>november/store_objekten</title>
<polygon fill="none" stroke="#8dab6c" points="12839,-52 12703,-52 12703,-16 12839,-16 12839,-52"/>
<text text-anchor="middle" x="12771" y="-30.3" font-family="Input Sans" font-size="14.00">store_objekten</text>
</g>
<!-- oscar/umwelt -->
<g id="node106" class="node">
<title>oscar/umwelt</title>
<polygon fill="none" stroke="#bf868d" points="12935,-52 12863,-52 12863,-16 12935,-16 12935,-52"/>
<text text-anchor="middle" x="12899" y="-30.3" font-family="Input Sans" font-size="14.00">umwelt</text>
</g>
<!-- papa/user_ops -->
<g id="node107" class="node">
<title>papa/user_ops</title>
<polygon fill="none" stroke="#a4eedc" points="13499.5,-52 13410.5,-52 13410.5,-16 13499.5,-16 13499.5,-52"/>
<text text-anchor="middle" x="13455" y="-30.3" font-family="Input Sans" font-size="14.00">user_ops</text>
</g>
<!-- papa/remote_transfers -->
<g id="node108" class="node">
<title>papa/remote_transfers</title>
<polygon fill="none" stroke="#a4eedc" points="13392,-52 13234,-52 13234,-16 13392,-16 13392,-52"/>
<text text-anchor="middle" x="13313" y="-30.3" font-family="Input Sans" font-size="14.00">remote_transfers</text>
</g>
<!-- papa/remote_conn -->
<g id="node109" class="node">
<title>papa/remote_conn</title>
<polygon fill="none" stroke="#a4eedc" points="13215.5,-52 13096.5,-52 13096.5,-16 13215.5,-16 13215.5,-52"/>
<text text-anchor="middle" x="13156" y="-30.3" font-family="Input Sans" font-size="14.00">remote_conn</text>
</g>
<!-- papa/remote_push -->
<g id="node110" class="node">
<title>papa/remote_push</title>
<polygon fill="none" stroke="#a4eedc" points="13078.5,-52 12959.5,-52 12959.5,-16 13078.5,-16 13078.5,-52"/>
<text text-anchor="middle" x="13019" y="-30.3" font-family="Input Sans" font-size="14.00">remote_push</text>
</g>
<!-- quebec/commands -->
<g id="node111" class="node">
<title>quebec/commands</title>
<polygon fill="none" stroke="#e79e66" points="13622,-52 13524,-52 13524,-16 13622,-16 13622,-52"/>
<text text-anchor="middle" x="13573" y="-30.3" font-family="Input Sans" font-size="14.00">commands</text>
</g>
</g>
</svg>
